<?xml version="1.0" standalone="no"?>
<!DOCTYPE svg PUBLIC "-//W3C//DTD SVG 20010904//EN"
 "http://www.w3.org/TR/2001/REC-SVG-20010904/DTD/svg10.dtd">
<svg version="1.0" xmlns="http://www.w3.org/2000/svg"
 width="852.000000pt" height="852.000000pt" viewBox="0 0 852.000000 852.000000"
 preserveAspectRatio="xMidYMid meet">
<metadata>
Created by potrace 1.11, written by Peter Selinger 2001-2013
</metadata>
<g transform="translate(0.000000,852.000000) scale(0.100000,-0.100000)"
fill="#000000" stroke="none">
<path d="M943 8155 c-164 -49 -256 -218 -213 -387 13 -52 42 -95 410 -616 69
-97 146 -206 171 -242 25 -36 98 -139 162 -230 64 -91 146 -209 184 -263 37
-54 73 -104 79 -110 5 -7 33 -46 62 -87 104 -151 156 -225 161 -230 3 -3 11
-12 16 -21 13 -21 131 -191 143 -204 4 -5 28 -39 52 -75 24 -36 48 -69 52 -75
40 -47 402 -569 418 -601 44 -92 45 -197 3 -278 -9 -17 -129 -190 -267 -384
-138 -195 -270 -381 -294 -415 -61 -87 -128 -182 -442 -624 -471 -665 -558
-787 -580 -818 -339 -473 -406 -571 -423 -621 -20 -55 -15 -150 9 -204 26 -57
86 -117 144 -144 43 -20 62 -21 538 -22 459 -1 498 0 545 17 28 10 67 32 86
47 31 24 258 329 579 774 42 58 187 258 322 443 135 185 261 358 280 385 41
57 222 307 654 900 336 462 367 505 453 625 31 44 74 99 96 122 21 22 48 54
60 71 12 16 30 40 40 53 9 13 58 80 108 149 49 69 103 143 119 165 30 42 164
228 190 265 8 12 128 177 265 368 488 675 793 1100 952 1322 89 124 166 230
170 235 5 6 59 80 121 167 83 117 115 170 126 210 36 139 -35 277 -169 327
-47 18 -81 19 -495 17 -439 -1 -446 -2 -492 -24 -73 -34 -111 -74 -206 -211
-48 -69 -94 -135 -102 -147 -8 -12 -42 -61 -75 -110 -33 -49 -62 -91 -66 -94
-3 -3 -81 -115 -174 -250 -93 -135 -183 -265 -200 -290 -141 -202 -207 -297
-257 -370 -32 -47 -152 -209 -266 -360 -218 -289 -256 -327 -345 -351 -95 -25
-214 -1 -287 60 -20 16 -54 55 -76 88 -22 32 -163 236 -314 453 -150 217 -305
441 -344 497 -39 57 -170 245 -291 420 -121 174 -257 371 -303 437 -103 151
-142 193 -212 225 l-55 26 -390 1 c-287 1 -401 -2 -432 -11z"/>
<path d="M6815 7062 c-54 -5 -123 -33 -164 -65 -36 -29 -151 -171 -151 -187 0
-3 -8 -15 -18 -26 -9 -10 -35 -44 -57 -74 -21 -30 -75 -104 -120 -165 -44 -60
-87 -120 -95 -132 -23 -33 -346 -477 -409 -562 -31 -41 -63 -85 -71 -97 -19
-28 -210 -293 -227 -314 -7 -8 -56 -76 -109 -150 -54 -74 -126 -173 -160 -220
-87 -119 -236 -324 -254 -350 -8 -12 -22 -32 -31 -44 -9 -11 -163 -222 -342
-468 -179 -246 -341 -463 -360 -483 -27 -28 -284 -377 -347 -472 -8 -12 -125
-174 -259 -360 -279 -386 -691 -957 -736 -1020 -16 -24 -73 -103 -126 -175
-470 -650 -626 -870 -647 -911 -69 -131 0 -305 147 -370 44 -19 65 -20 476
-20 459 0 486 3 560 50 48 31 78 64 131 140 44 65 286 414 334 483 18 25 119
171 226 325 106 154 198 287 204 295 224 324 585 810 633 852 87 76 235 96
340 44 65 -32 94 -60 174 -173 69 -98 174 -249 188 -271 6 -9 14 -21 18 -26 8
-11 85 -121 494 -713 106 -153 265 -384 355 -513 90 -129 181 -262 203 -295
36 -53 98 -122 136 -151 8 -6 40 -19 70 -29 48 -16 93 -18 434 -18 364 1 382
2 436 22 69 26 140 92 171 158 29 64 36 167 14 233 -13 39 -138 233 -203 315
-5 6 -71 100 -148 209 -77 110 -161 229 -187 265 -26 36 -64 91 -85 121 -21
30 -84 120 -140 200 -57 80 -108 152 -113 160 -6 8 -60 85 -121 170 -60 85
-117 166 -127 180 -17 26 -233 334 -284 405 -16 22 -49 69 -74 105 -24 36 -78
112 -119 170 -41 58 -92 130 -112 160 -21 30 -41 60 -46 65 -42 52 -134 191
-154 233 -32 68 -35 158 -8 228 10 27 98 162 195 299 97 138 192 273 212 300
98 139 413 583 427 601 9 12 22 30 29 40 15 23 138 197 225 319 35 50 131 185
212 300 82 116 204 287 270 380 382 536 434 613 450 663 50 152 -54 328 -209
357 -37 7 -889 13 -951 7z"/>
</g>
</svg>
