<svg version="1" xmlns="http://www.w3.org/2000/svg" width="1136" height="1136" viewBox="0 0 852.000000 852.000000"><path d="M94.3 36.5C77.9 41.4 68.7 58.3 73 75.2c1.3 5.2 4.2 9.5 41 61.6 6.9 9.7 14.6 20.6 17.1 24.2 2.5 3.6 9.8 13.9 16.2 23 6.4 9.1 14.6 20.9 18.4 26.3 3.7 5.4 7.3 10.4 7.9 11 .5.7 3.3 4.6 6.2 8.7 10.4 15.1 15.6 22.5 16.1 23 .3.3 1.1 1.2 1.6 2.1 1.3 2.1 13.1 19.1 14.3 20.4.4.5 2.8 3.9 5.2 7.5 2.4 3.6 4.8 6.9 5.2 7.5 4 4.7 40.2 56.9 41.8 60.1 4.4 9.2 4.5 19.7.3 27.8-.9 1.7-12.9 19-26.7 38.4-13.8 19.5-27 38.1-29.4 41.5-6.1 8.7-12.8 18.2-44.2 62.4-47.1 66.5-55.8 78.7-58 81.8-33.9 47.3-40.6 57.1-42.3 62.1-2 5.5-1.5 15 .9 20.4 2.6 5.7 8.6 11.7 14.4 14.4 4.3 2 6.2 2.1 53.8 2.2 45.9.1 49.8 0 54.5-1.7 2.8-1 6.7-3.2 8.6-4.7 3.1-2.4 25.8-32.9 57.9-77.4 4.2-5.8 18.7-25.8 32.2-44.3 13.5-18.5 26.1-35.8 28-38.5 4.1-5.7 22.2-30.7 65.4-90 33.6-46.2 36.7-50.5 45.3-62.5 3.1-4.4 7.4-9.9 9.6-12.2 2.1-2.2 4.8-5.4 6-7.1 1.2-1.6 3-4 4-5.3.9-1.3 5.8-8 10.8-14.9 4.9-6.9 10.3-14.3 11.9-16.5 3-4.2 16.4-22.8 19-26.5.8-1.2 12.8-17.7 26.5-36.8 48.8-67.5 79.3-110 95.2-132.2 8.9-12.4 16.6-23 17-23.5.5-.6 5.9-8 12.1-16.7 8.3-11.7 11.5-17 12.6-21 3.6-13.9-3.5-27.7-16.9-32.7-4.7-1.8-8.1-1.9-49.5-1.7-43.9.1-44.6.2-49.2 2.4-7.3 3.4-11.1 7.4-20.6 21.1-4.8 6.9-9.4 13.5-10.2 14.7-.8 1.2-4.2 6.1-7.5 11s-6.2 9.1-6.6 9.4c-.3.3-8.1 11.5-17.4 25-9.3 13.5-18.3 26.5-20 29-14.1 20.2-20.7 29.7-25.7 37-3.2 4.7-15.2 20.9-26.6 36-21.8 28.9-25.6 32.7-34.5 35.1-9.5 2.5-21.4.1-28.7-6-2-1.6-5.4-5.5-7.6-8.8-2.2-3.2-16.3-23.6-31.4-45.3-15-21.7-30.5-44.1-34.4-49.7-3.9-5.7-17-24.5-29.1-42-12.1-17.4-25.7-37.1-30.3-43.7C192.9 45.5 189 41.3 182 38.1l-5.5-2.6-39-.1c-28.7-.1-40.1.2-43.2 1.1zm587.2 109.3c-5.4.5-12.3 3.3-16.4 6.5-3.6 2.9-15.1 17.1-15.1 18.7 0 .3-.8 1.5-1.8 2.6-.9 1-3.5 4.4-5.7 7.4-2.1 3-7.5 10.4-12 16.5-4.4 6-8.7 12-9.5 13.2-2.3 3.3-34.6 47.7-40.9 56.2-3.1 4.1-6.3 8.5-7.1 9.7-1.9 2.8-21 29.3-22.7 31.4-.7.8-5.6 7.6-10.9 15-5.4 7.4-12.6 17.3-16 22-8.7 11.9-23.6 32.4-25.4 35-.8 1.2-2.2 3.2-3.1 4.4-.9 1.1-16.3 22.2-34.2 46.8-17.9 24.6-34.1 46.3-36 48.3-2.7 2.8-28.4 37.7-34.7 47.2-.8 1.2-12.5 17.4-25.9 36-27.9 38.6-69.1 95.7-73.6 102-1.6 2.4-7.3 10.3-12.6 17.5-47 65-62.6 87-64.7 91.1-6.9 13.1 0 30.5 14.7 37 4.4 1.9 6.5 2 47.6 2 45.9 0 48.6-.3 56-5 4.8-3.1 7.8-6.4 13.1-14 4.4-6.5 28.6-41.4 33.4-48.3 1.8-2.5 11.9-17.1 22.6-32.5 10.6-15.4 19.8-28.7 20.4-29.5 22.4-32.4 58.5-81 63.3-85.2 8.7-7.6 23.5-9.6 34-4.4 6.5 3.2 9.4 6 17.4 17.3 6.9 9.8 17.4 24.9 18.8 27.1.6.9 1.4 2.1 1.8 2.6.8 1.1 8.5 12.1 49.4 71.3 10.6 15.3 26.5 38.4 35.5 51.3 9 12.9 18.1 26.2 20.3 29.5 3.6 5.3 9.8 12.2 13.6 15.1.8.6 4 1.9 7 2.9 4.8 1.6 9.3 1.8 43.4 1.8 36.4-.1 38.2-.2 43.6-2.2 6.9-2.6 14-9.2 17.1-15.8 2.9-6.4 3.6-16.7 1.4-23.3-1.3-3.9-13.8-23.3-20.3-31.5-.5-.6-7.1-10-14.8-20.9-7.7-11-16.1-22.9-18.7-26.5-2.6-3.6-6.4-9.1-8.5-12.1l-14-20c-5.7-8-10.8-15.2-11.3-16-.6-.8-6-8.5-12.1-17-6-8.5-11.7-16.6-12.7-18-1.7-2.6-23.3-33.4-28.4-40.5-1.6-2.2-4.9-6.9-7.4-10.5-2.4-3.6-7.8-11.2-11.9-17-4.1-5.8-9.2-13-11.2-16-2.1-3-4.1-6-4.6-6.5-4.2-5.2-13.4-19.1-15.4-23.3-3.2-6.8-3.5-15.8-.8-22.8 1-2.7 9.8-16.2 19.5-29.9 9.7-13.8 19.2-27.3 21.2-30 9.8-13.9 41.3-58.3 42.7-60.1.9-1.2 2.2-3 2.9-4 1.5-2.3 13.8-19.7 22.5-31.9 3.5-5 13.1-18.5 21.2-30 8.2-11.6 20.4-28.7 27-38 38.2-53.6 43.4-61.3 45-66.3 5-15.2-5.4-32.8-20.9-35.7-3.7-.7-88.9-1.3-95.1-.7z"/></svg>